<?xml version="1.0" encoding="UTF-8"?>
<svg version="1.1" xmlns="http://www.w3.org/2000/svg" width="512" height="512">
<path d="M0 0 C4.70745338 4.38713571 9.22572519 8.96247643 13.70068359 13.58496094 C16.54500497 12.29900934 18.52527732 10.9827842 20.66162109 8.71386719 C21.20826416 8.14490723 21.75490723 7.57594727 22.31811523 6.98974609 C22.89811279 6.38179199 23.47811035 5.77383789 24.07568359 5.14746094 C51.79266202 -23.16342672 88.40388475 -38.74680864 127.98144531 -39.421875 C148.80684709 -39.36952168 169.82252873 -35.32383125 188.70068359 -26.41503906 C189.37019043 -26.10083008 190.03969727 -25.78662109 190.72949219 -25.46289062 C210.72057972 -15.89569423 228.23074016 -2.04298722 241.70068359 15.58496094 C242.36712891 16.43574219 243.03357422 17.28652344 243.72021484 18.16308594 C267.07032055 48.92811674 275.00079384 87.85527474 270.01708984 125.85839844 C269.1975239 130.84660963 268.06101041 135.71822092 266.70068359 140.58496094 C266.37922363 141.75019287 266.37922363 141.75019287 266.05126953 142.93896484 C262.8608417 154.12868225 258.25722337 164.38638943 252.70068359 174.58496094 C252.13478516 175.64328125 251.56888672 176.70160156 250.98583984 177.79199219 C244.42142935 189.57703974 235.86565733 199.73899844 226.70068359 209.58496094 C225.65054895 210.73801013 224.60111801 211.89170047 223.55224609 213.04589844 C216.368911 220.90119647 208.89051172 228.29592266 201.04833984 235.49121094 C198.38387773 237.93727452 195.79888672 240.44209767 193.26318359 243.02246094 C190.35116003 245.97785507 187.31098342 248.7020498 184.16552734 251.40527344 C180.78083332 254.3983943 177.495192 257.49323492 174.20068359 260.58496094 C169.72134897 264.78474745 165.23212838 268.95191359 160.57568359 272.95605469 C158.31317178 274.92161183 156.10377677 276.94169403 153.88818359 278.95996094 C150.44690154 282.07024945 146.93747062 285.04974406 143.32568359 287.95996094 C139.31242075 291.20448611 135.47652975 294.57243277 131.70068359 298.08496094 C127.16675738 302.29892212 122.48827902 306.26721161 117.66943359 310.15136719 C114.18736265 313.00574902 110.78433227 315.94183506 107.38818359 318.89746094 C106.75452881 319.44869629 106.12087402 319.99993164 105.46801758 320.56787109 C104.18203105 321.68689927 102.89614252 322.80604008 101.61035156 323.92529297 C93.65933138 330.83542276 85.65604927 337.66672713 77.47802734 344.30761719 C74.35671726 346.86700365 71.27627361 349.47100216 68.20068359 352.08496094 C63.43780765 356.12989571 58.63700325 360.12147693 53.78662109 364.06152344 C51.36326871 366.04315083 48.95442304 368.03883781 46.55224609 370.04589844 C45.81393555 370.66037842 45.075625 371.2748584 44.31494141 371.90795898 C42.86610847 373.11431934 41.41995624 374.32390964 39.97705078 375.53735352 C31.28211797 382.75949215 23.55381998 389.04237655 11.82568359 388.58496094 C2.93155641 387.39998534 -3.57789875 381.61708429 -9.95947266 375.71777344 C-14.24250748 371.81370497 -18.79607633 368.23014275 -23.29931641 364.58496094 C-29.99103955 359.16456664 -36.58408363 353.64814802 -43.10717773 348.02709961 C-46.63192593 344.99576797 -50.18953623 342.01525308 -53.79931641 339.08496094 C-58.64242873 335.15349328 -63.37555822 331.10616696 -68.09912109 327.03295898 C-71.70496644 323.93056569 -75.35135432 320.89030313 -79.04931641 317.89746094 C-83.42727154 314.34517278 -87.61045292 310.62465036 -91.77587891 306.82714844 C-94.35013999 304.5398019 -96.9922113 302.36947823 -99.67431641 300.20996094 C-104.81690184 296.04934019 -109.67383377 291.64139789 -114.52197266 287.14746094 C-117.40625194 284.48629749 -120.34268774 281.89797086 -123.30712891 279.32714844 C-126.5281564 276.51032832 -129.69349277 273.63185948 -132.86962891 270.76464844 C-134.95537821 268.89351 -137.05749269 267.04571263 -139.17431641 265.20996094 C-144.09047969 260.92432762 -148.87955222 256.50073964 -153.67431641 252.08056641 C-155.32745107 250.55906657 -156.984878 249.04235629 -158.64306641 247.52636719 C-164.30841317 242.33629566 -169.85371699 237.0782108 -175.24853516 231.60449219 C-177.86206169 229.03079082 -180.61896375 226.65368055 -183.39697266 224.26074219 C-188.48144431 219.78181336 -193.03015924 214.85633382 -197.43603516 209.71777344 C-198.70103053 208.26979132 -199.99685956 206.84829061 -201.31884766 205.45214844 C-212.19063031 193.89475787 -220.88473094 180.88624714 -227.4453125 166.4609375 C-228.25719733 164.67748322 -229.09973398 162.90807662 -229.94384766 161.13964844 C-238.3887263 142.71057151 -241.71777328 123.05388842 -241.61181641 102.89746094 C-241.60932892 102.14284576 -241.60684143 101.38823059 -241.60427856 100.61074829 C-241.54855852 89.69410565 -241.35032583 79.14498364 -238.29931641 68.58496094 C-238.06825195 67.77349609 -237.8371875 66.96203125 -237.59912109 66.12597656 C-231.36298248 44.83681909 -221.77461391 26.4644601 -207.29931641 9.58496094 C-206.61611328 8.77800781 -205.93291016 7.97105469 -205.22900391 7.13964844 C-200.92139661 2.15633804 -196.44443242 -2.30227642 -191.29931641 -6.41503906 C-190.27580078 -7.23746094 -189.25228516 -8.05988281 -188.19775391 -8.90722656 C-172.99227596 -20.75905661 -155.88564294 -29.33735475 -137.29931641 -34.41503906 C-136.15849609 -34.72957031 -135.01767578 -35.04410156 -133.84228516 -35.36816406 C-85.60838002 -47.0404258 -36.35065665 -33.0345672 0 0 Z M-161.29931641 29.58496094 C-162.10111328 30.24109375 -162.90291016 30.89722656 -163.72900391 31.57324219 C-178.85376438 44.45991505 -188.51735252 61.38160071 -193.29931641 80.58496094 C-193.52361328 81.41382813 -193.74791016 82.24269531 -193.97900391 83.09667969 C-199.73831407 108.22462882 -192.71496902 134.67043065 -180.29931641 156.58496094 C-176.01762783 163.24828406 -171.04651795 169.19998536 -165.67041016 175.00292969 C-163.74451775 177.10015355 -161.87726527 179.22632314 -160.01806641 181.38183594 C-156.29939621 185.6440693 -152.37192817 189.66055136 -148.36181641 193.64746094 C-147.69730469 194.31583984 -147.03279297 194.98421875 -146.34814453 195.67285156 C-142.40048025 199.61285791 -138.34859614 203.36806439 -134.10766602 206.9909668 C-132.25879771 208.62067669 -130.52439985 210.32544831 -128.79931641 212.08496094 C-125.89595508 215.03378877 -122.85676756 217.74628204 -119.72119141 220.44433594 C-117.20360846 222.66955441 -114.75281938 224.9547529 -112.3034668 227.25439453 C-106.74426028 232.47366838 -101.10074394 237.44381891 -95.14306641 242.20996094 C-91.74296229 245.04960833 -88.52349232 248.04888009 -85.29931641 251.08496094 C-80.34204935 255.75208583 -75.26102766 260.15076466 -69.94384766 264.40917969 C-67.14092393 266.71527794 -64.46928365 269.12647624 -61.79931641 271.58496094 C-57.43162148 275.60101941 -52.93082405 279.37881548 -48.31494141 283.10449219 C-44.75261289 286.03464583 -41.27463679 289.05262061 -37.79931641 292.08496094 C-32.64371763 296.58021446 -27.42420005 300.97119929 -22.10791016 305.27636719 C-18.79633191 307.9984016 -15.54617851 310.78634984 -12.29931641 313.58496094 C-7.16575767 318.00921364 -1.98194762 322.35154405 3.29833984 326.60058594 C5.47446798 328.39810316 7.51783034 330.28044692 9.57568359 332.20996094 C12.34511617 334.80506547 12.34511617 334.80506547 14.95068359 334.60839844 C18.98830109 333.10576238 21.67453156 330.46566927 24.82568359 327.58496094 C26.16836948 326.38845325 27.51212554 325.19314544 28.85693359 323.99902344 C29.51306641 323.41282227 30.16919922 322.82662109 30.84521484 322.22265625 C33.2859988 320.06834325 35.7946534 318.00711771 38.32568359 315.95996094 C43.96864514 311.38548915 49.50801711 306.69552371 55.04345703 301.9921875 C57.75934126 299.68600649 60.48026132 297.38578501 63.20068359 295.08496094 C64.28533135 294.16700676 65.36996676 293.24903801 66.45458984 292.33105469 C68.60720145 290.50951461 70.76092978 288.68930765 72.91552734 286.87011719 C80.87649542 280.14617966 88.80281896 273.38290911 96.70068359 266.58496094 C97.64161865 265.77575195 97.64161865 265.77575195 98.6015625 264.95019531 C104.95264273 259.48393056 111.28027411 254.00506695 117.45068359 248.33496094 C121.02235237 245.05561624 124.67495095 241.93959335 128.45068359 238.89746094 C132.21954598 235.85564151 135.6901614 232.71365599 139.05615234 229.23730469 C140.70909962 227.57650493 142.42319997 226.04873703 144.20068359 224.52246094 C150.19861977 219.34505167 155.92611874 213.87173047 161.70410156 208.45214844 C163.64631255 206.6358083 165.59581823 204.82770721 167.54833984 203.02246094 C195.78963195 176.88281256 223.06326636 148.3768492 224.97802734 107.70605469 C225.74688733 80.52489952 217.19219539 56.79032017 198.70068359 36.58496094 C181.4263255 18.86226073 157.62894807 7.70884069 132.79174805 7.29248047 C120.85901929 7.22229298 110.04095943 7.75272979 98.70068359 11.58496094 C98.04535645 11.80458496 97.3900293 12.02420898 96.71484375 12.25048828 C79.70290853 18.13491043 66.42169038 28.60005789 53.94287109 41.32324219 C53.26329346 42.01607803 52.58371582 42.70891388 51.88354492 43.42274475 C49.0624239 46.30841944 46.24784418 49.20008855 43.44726562 52.10571289 C41.37379095 54.25209624 39.28461615 56.38218068 37.19287109 58.51074219 C36.26436844 59.48736565 36.26436844 59.48736565 35.31710815 60.48371887 C30.28284959 65.5748847 24.87581938 68.82887776 17.76708984 70.11621094 C16.94080078 70.10589844 16.11451172 70.09558594 15.26318359 70.08496094 C14.43947266 70.09527344 13.61576172 70.10558594 12.76708984 70.11621094 C3.69363867 68.54424997 -2.23828778 64.49406373 -8.43994141 57.88964844 C-9.16945007 57.14216339 -9.89895874 56.39467834 -10.65057373 55.62454224 C-12.96518281 53.25037578 -15.25883371 50.85739412 -17.54931641 48.45996094 C-37.90180132 27.2437216 -60.9641682 8.00704647 -91.97509766 7.34667969 C-118.01164664 6.91227856 -140.94117281 12.38339361 -161.29931641 29.58496094 Z " fill="#000000" transform="translate(241.29931640625,81.4150390625)"/>
</svg>
